<svg width="1012" height="1409" viewBox="0 0 1012 1409" fill="none" xmlns="http://www.w3.org/2000/svg">
<path fill-rule="evenodd" clip-rule="evenodd" d="M359.123 432.545L370.421 376.056L414.807 234.026L380.105 192.063L277.614 0L426.912 234.026L370.421 432.545L462.421 465.632L561.684 422.054L398.667 143.644L554.421 390.582L599.614 397.845L496.316 143.644L620.597 397.845L659.333 383.319L794.912 412.371L997.474 192.063L744.07 518.086L715.018 564.084L639.965 660.923L1012 765.831V784.392L688.386 690.781L599.614 907.861L639.965 1012.77L861.088 864.284L978.105 815.057L620.597 1045.86L726.316 1409L609.298 1066.84L471.298 1371.88L620.597 1012.77L587.509 915.124L171.088 1040.21L205.789 1012.77L471.298 939.333L426.912 773.901L398.667 815.057L421.263 856.214L387.368 864.284L273.579 964.35L89.5789 955.473L66.1754 944.982L267.93 955.473L387.368 856.214L380.105 815.057L387.368 784.392L414.807 765.831V745.656L133.965 886.072L118.632 864.284L414.807 731.938L452.737 581.031L296.175 690.781L16.9474 705.307L0 679.483L316.351 660.923L426.912 581.031L404.316 570.54V548.751L338.947 564.084L66.1754 465.632L52.4561 444.65L338.947 524.542L414.807 540.682L426.912 510.016L387.368 465.632V454.334L370.421 444.65L243.719 364.758V344.584L323.614 412.371L359.123 432.545ZM452.737 484.192L426.912 548.751L462.421 558.435L582.667 502.753L688.386 454.334H759.404H779.579L800.561 422.054L652.07 397.845L582.667 422.054L462.421 484.192H452.737ZM736.807 465.632L754.561 479.351L618.982 664.151L673.86 690.781L587.509 898.984L482.597 929.649L439.825 770.673L514.877 622.187L434.982 756.147L426.912 726.289L468.877 570.54L496.316 558.435L679.509 472.895L736.807 465.632ZM582.667 543.103V651.239L493.895 706.114L544.737 859.442L511.649 710.956L632.702 625.415L673.86 499.525L616.561 622.187L594.772 639.941L582.667 543.103Z" fill="#5CB6F5"/>
</svg>
