<svg width="481" height="708" viewBox="0 0 481 708" fill="none" xmlns="http://www.w3.org/2000/svg">
<path d="M224.48 575.932C418.515 526.224 399.028 250.769 284.473 157.967C175.587 69.8872 103.311 228.808 96.9337 331.882C95.8708 349.002 89.6122 508.278 146.299 528.822C180.43 540.629 208.891 476.163 208.182 416.184C207.221 355.229 199.979 294.536 186.571 235.066C168.148 151.355 117.365 -8.98241 263.924 13.8049C349.9 27.0286 414.145 103.654 439.891 182.288C497.522 357.621 500.829 625.401 275.852 691.402C234.636 703.209 178.421 717.377 100.004 625.047C1.15635 508.985 -8.76332 275.563 26.7842 114.28C40.3654 52.5302 87.722 6.95558 133.78 8.0182" stroke="#FFDF01" stroke-width="15" stroke-linejoin="round"/>
</svg>
