<svg width="481" height="708" viewBox="0 0 481 708" fill="none" xmlns="http://www.w3.org/2000/svg">
<path d="M256.52 132.068C62.485 181.776 81.9717 457.231 196.527 550.033C305.413 638.113 377.689 479.192 384.066 376.118C385.129 358.998 391.388 199.722 334.701 179.178C300.57 167.371 272.109 231.837 272.818 291.816C273.779 352.771 281.021 413.464 294.429 472.934C312.852 556.645 363.635 716.982 217.076 694.195C131.1 680.971 66.8548 604.346 41.1094 525.712C-16.5224 350.379 -19.8289 82.5986 205.148 16.598C246.364 4.79114 302.579 -9.37721 380.996 82.9528C479.844 199.015 489.763 432.437 454.216 593.72C440.635 655.47 393.278 701.044 347.22 699.982" stroke="#FB8C27" stroke-width="15" stroke-linejoin="round"/>
</svg>
