<svg width="449" height="535" viewBox="0 0 449 535" fill="none" xmlns="http://www.w3.org/2000/svg">
<path d="M245.717 166.217C237.657 189.768 233.949 214.586 234.775 239.46C235.22 253.974 237.874 268.335 242.647 282.053C261.856 337.77 309.72 325.825 329.244 275.923C338.501 254.277 340.874 230.317 336.045 207.281C331.216 184.245 319.417 163.245 302.242 147.121C289.174 134.862 264.847 122.366 246.583 129.675C171.874 159.223 181.557 286.847 219.581 339.735C239.971 368.026 276.105 397.495 313.263 380.521C419.147 332.033 400.411 176.198 350.893 95.0977C329.087 59.5769 286.497 15.7253 240.207 25.5485C195.255 35.136 168.016 98.0839 157.939 136.355C150.026 166.256 144.913 196.826 142.667 227.672C141.433 249.494 142.25 271.384 145.107 293.055C154.79 373.369 216.905 518.203 324.836 487.397C427.178 458.163 449.929 334.469 438.199 243.781C424.107 134.626 363.253 5.9808 234.932 8.02403C205.778 7.8556 176.708 11.1532 148.335 17.8473C8.67759 54.6254 -5.7291 193.33 16.3925 314.823C32.1374 400.482 82.7573 569.912 267.288 516.945" stroke="#A43F0D" stroke-width="15" stroke-linejoin="round"/>
</svg>
