<svg width="126" height="22" viewBox="0 0 126 22" fill="none" xmlns="http://www.w3.org/2000/svg">
<path d="M0 13.4322V8.56784L19.5728 0V5.59673L6.17211 10.9447L6.35282 10.6545V11.3455L6.17211 11.0553L19.5728 16.4033V22L0 13.4322Z" fill="#B377BF"/>
<path d="M26.6068 13.4322V8.56784L46.1796 0V5.59673L32.7789 10.9447L32.9596 10.6545V11.3455L32.7789 11.0553L46.1796 16.4033V22L26.6068 13.4322Z" fill="#B377BF"/>
<path d="M53.2136 13.4322V8.56784L72.7864 0V5.59673L59.3857 10.9447L59.5664 10.6545V11.3455L59.3857 11.0553L72.7864 16.4033V22L53.2136 13.4322Z" fill="#B377BF"/>
<path d="M79.8204 13.4322V8.56784L99.3932 0V5.59673L85.9925 10.9447L86.1732 10.6545V11.3455L85.9925 11.0553L99.3932 16.4033V22L79.8204 13.4322Z" fill="#B377BF"/>
<path d="M106.427 13.4322V8.56784L126 0V5.59673L112.599 10.9447L112.78 10.6545V11.3455L112.599 11.0553L126 16.4033V22L106.427 13.4322Z" fill="#B377BF"/>
</svg>
