<svg width="134" height="134" viewBox="0 0 134 134" fill="none" xmlns="http://www.w3.org/2000/svg">
<path fill-rule="evenodd" clip-rule="evenodd" d="M133.706 73.3199C133.865 71.6222 133.96 69.906 133.99 68.1739C133.997 67.7834 134 67.3921 134 67C134 66.6079 133.997 66.2166 133.99 65.8261C133.96 64.094 133.865 62.3778 133.706 60.6801C133.544 58.9545 133.318 57.248 133.028 55.563C127.71 56.0558 123.591 60.5756 123.684 66.0032C123.689 66.3347 123.692 66.6669 123.692 67C123.692 67.3331 123.689 67.6653 123.684 67.9968C123.591 73.4244 127.71 77.9442 133.028 78.437C133.318 76.752 133.544 75.0455 133.706 73.3199ZM129.905 90.1167C125.056 87.8883 119.234 89.74 116.6 94.4823C116.279 95.0593 115.949 95.6302 115.609 96.1948C112.81 100.844 114.108 106.816 118.46 109.908C119.562 108.588 120.614 107.225 121.613 105.822C122.608 104.424 123.551 102.986 124.439 101.512C124.841 100.845 125.232 100.17 125.61 99.4877C126.443 97.9891 127.22 96.4553 127.938 94.889C128.652 93.3295 129.309 91.7378 129.905 90.1167ZM109.908 118.46C106.816 114.108 100.844 112.81 96.1948 115.609C95.6302 115.949 95.0593 116.279 94.4823 116.6C89.74 119.234 87.8883 125.056 90.1167 129.905C91.7378 129.309 93.3295 128.652 94.889 127.938C96.4553 127.22 97.9891 126.443 99.4877 125.611C100.17 125.232 100.845 124.841 101.512 124.439C102.986 123.551 104.424 122.608 105.822 121.613C107.225 120.614 108.588 119.562 109.908 118.46ZM78.437 133.028C77.9442 127.71 73.4244 123.591 67.9968 123.684C67.6653 123.689 67.3331 123.692 67 123.692C66.6669 123.692 66.3347 123.689 66.0032 123.684C60.5756 123.591 56.0558 127.71 55.563 133.028C57.248 133.318 58.9545 133.544 60.6801 133.706C62.3778 133.865 64.094 133.96 65.8261 133.99C66.2166 133.997 66.6079 134 67 134C67.3921 134 67.7834 133.997 68.1738 133.99C69.906 133.96 71.6222 133.865 73.3199 133.706C75.0455 133.544 76.752 133.318 78.437 133.028ZM43.8833 129.905C46.1117 125.056 44.26 119.234 39.5177 116.6C38.9407 116.279 38.3698 115.949 37.8052 115.609C33.1565 112.81 27.1837 114.108 24.0916 118.46C25.4117 119.562 26.7749 120.614 28.1783 121.613C29.576 122.608 31.0136 123.551 32.4881 124.439C33.1554 124.841 33.8302 125.232 34.5123 125.61C36.0109 126.443 37.5447 127.22 39.111 127.938C40.6705 128.652 42.2622 129.309 43.8833 129.905ZM15.5404 109.908C19.892 106.816 21.1903 100.844 18.3911 96.1948C18.0512 95.6302 17.7208 95.0593 17.4003 94.4823C14.766 89.74 8.94352 87.8883 4.09484 90.1167C4.69076 91.7378 5.34755 93.3295 6.06245 94.889C6.78046 96.4553 7.55707 97.9891 8.3895 99.4877C8.76841 100.17 9.15888 100.845 9.56065 101.512C10.4485 102.986 11.3916 104.424 12.387 105.822C13.3863 107.225 14.4384 108.588 15.5404 109.908ZM0.972299 78.437C6.29029 77.9442 10.4095 73.4244 10.3162 67.9968C10.3106 67.6653 10.3077 67.3331 10.3077 67C10.3077 66.6669 10.3106 66.3347 10.3162 66.0032C10.4095 60.5756 6.29029 56.0558 0.9723 55.563C0.682489 57.248 0.455609 58.9545 0.294168 60.6801C0.135328 62.3778 0.0398346 64.094 0.0100763 65.8261C0.00336787 66.2166 0 66.6079 0 67C0 67.3921 0.00336784 67.7834 0.0100762 68.1738C0.0398343 69.906 0.135328 71.6222 0.294168 73.3199C0.455609 75.0455 0.682489 76.752 0.972299 78.437ZM4.09485 43.8833C8.94352 46.1117 14.766 44.26 17.4003 39.5177C17.7208 38.9407 18.0512 38.3698 18.3911 37.8052C21.1903 33.1565 19.892 27.1837 15.5404 24.0916C14.4384 25.4117 13.3863 26.7749 12.387 28.1783C11.3916 29.576 10.4485 31.0136 9.56066 32.4881C9.15889 33.1554 8.76841 33.8302 8.3895 34.5123C7.55708 36.0109 6.78046 37.5447 6.06245 39.111C5.34756 40.6705 4.69076 42.2622 4.09485 43.8833ZM24.0916 15.5404C27.1837 19.892 33.1565 21.1903 37.8052 18.3911C38.3698 18.0512 38.9407 17.7208 39.5177 17.4003C44.26 14.766 46.1117 8.94352 43.8833 4.09484C42.2622 4.69076 40.6705 5.34755 39.111 6.06245C37.5447 6.78046 36.0109 7.55707 34.5123 8.3895C33.8302 8.76841 33.1554 9.15888 32.4881 9.56065C31.0136 10.4485 29.576 11.3916 28.1783 12.387C26.7749 13.3863 25.4117 14.4384 24.0916 15.5404ZM55.563 0.972299C56.0558 6.29029 60.5756 10.4095 66.0032 10.3162C66.3347 10.3106 66.6669 10.3077 67 10.3077C67.3331 10.3077 67.6653 10.3106 67.9968 10.3162C73.4244 10.4095 77.9442 6.29029 78.437 0.972301C76.752 0.682489 75.0455 0.455609 73.3199 0.294168C71.6222 0.135328 69.906 0.0398346 68.1739 0.0100763C67.7834 0.00336792 67.3921 0 67 0C66.6079 0 66.2166 0.00336781 65.8261 0.0100762C64.094 0.0398344 62.3778 0.135328 60.6801 0.294168C58.9545 0.455609 57.248 0.682489 55.563 0.972299ZM90.1167 4.09485C87.8883 8.94352 89.74 14.766 94.4823 17.4003C95.0593 17.7208 95.6302 18.0512 96.1948 18.3911C100.844 21.1903 106.816 19.892 109.908 15.5404C108.588 14.4384 107.225 13.3863 105.822 12.387C104.424 11.3916 102.986 10.4485 101.512 9.56066C100.845 9.15889 100.17 8.76841 99.4877 8.3895C97.9891 7.55708 96.4553 6.78046 94.889 6.06246C93.3295 5.34756 91.7378 4.69076 90.1167 4.09485ZM118.46 24.0916C114.108 27.1837 112.81 33.1565 115.609 37.8052C115.949 38.3698 116.279 38.9407 116.6 39.5177C119.234 44.26 125.056 46.1117 129.905 43.8833C129.309 42.2622 128.652 40.6705 127.938 39.111C127.22 37.5447 126.443 36.0109 125.611 34.5123C125.232 33.8302 124.841 33.1554 124.439 32.4881C123.551 31.0136 122.608 29.576 121.613 28.1783C120.614 26.7749 119.562 25.4117 118.46 24.0916Z" fill="#E99533"/>
</svg>
