<svg width="106" height="116" viewBox="0 0 106 116" fill="none" xmlns="http://www.w3.org/2000/svg">
<circle cx="5.33954" cy="26.2697" r="5.33954" fill="#E8E8E8"/>
<circle cx="24.2233" cy="26.2697" r="5.33954" fill="#E8E8E8"/>
<circle cx="5.33954" cy="5.3349" r="5.33954" fill="#E8E8E8"/>
<circle cx="5.33954" cy="47.2048" r="5.33954" fill="#E8E8E8"/>
<circle cx="24.2233" cy="47.2048" r="5.33954" fill="#E8E8E8"/>
<circle cx="43.1061" cy="47.2048" r="5.33954" fill="#E8E8E8"/>
<circle cx="5.33954" cy="68.1396" r="5.33954" fill="#E8E8E8"/>
<circle cx="24.2233" cy="68.1396" r="5.33954" fill="#E8E8E8"/>
<circle cx="43.1061" cy="68.1396" r="5.33954" fill="#E8E8E8"/>
<circle cx="61.988" cy="68.1396" r="5.33954" fill="#E8E8E8"/>
<circle cx="5.33954" cy="89.0745" r="5.33954" fill="#E8E8E8"/>
<circle cx="24.2233" cy="89.0745" r="5.33954" fill="#E8E8E8"/>
<circle cx="43.1061" cy="89.0745" r="5.33954" fill="#E8E8E8"/>
<circle cx="61.988" cy="89.0745" r="5.33954" fill="#E8E8E8"/>
<circle cx="80.8718" cy="89.0745" r="5.33954" fill="#E8E8E8"/>
<circle cx="5.33954" cy="110.009" r="5.33954" fill="#E8E8E8"/>
<circle cx="24.2233" cy="110.009" r="5.33954" fill="#E8E8E8"/>
<circle cx="43.1061" cy="110.009" r="5.33954" fill="#E8E8E8"/>
<circle cx="61.988" cy="110.009" r="5.33954" fill="#E8E8E8"/>
<circle cx="80.8718" cy="110.009" r="5.33954" fill="#E8E8E8"/>
<circle cx="99.7556" cy="110.009" r="5.33954" fill="#E8E8E8"/>
</svg>
