<svg width="240" height="240" viewBox="0 0 240 240" fill="none" xmlns="http://www.w3.org/2000/svg">
<path fill-rule="evenodd" clip-rule="evenodd" d="M119.993 188.856C157.916 188.856 188.66 158.493 188.66 121.037C188.66 83.5821 157.916 53.2186 119.993 53.2186C82.0695 53.2186 51.3265 83.5821 51.3265 121.037C51.3265 158.493 82.0695 188.856 119.993 188.856ZM119.993 203.084C165.872 203.084 203.065 166.35 203.065 121.037C203.065 75.7243 165.872 38.9908 119.993 38.9908C74.1135 38.9908 36.9209 75.7243 36.9209 121.037C36.9209 166.35 74.1135 203.084 119.993 203.084Z" fill="#B377BF"/>
<path fill-rule="evenodd" clip-rule="evenodd" d="M119.993 213.445C171.595 213.445 213.426 171.613 213.426 120.012C213.426 68.4099 171.595 26.5784 119.993 26.5784C68.3912 26.5784 26.5597 68.4099 26.5597 120.012C26.5597 171.613 68.3912 213.445 119.993 213.445ZM119.993 240.005C186.263 240.005 239.986 186.282 239.986 120.012C239.986 53.7414 186.263 0.0186768 119.993 0.0186768C53.7227 0.0186768 0 53.7414 0 120.012C0 186.282 53.7227 240.005 119.993 240.005Z" fill="#B377BF"/>
<path fill-rule="evenodd" clip-rule="evenodd" d="M119.993 167.246C146.08 167.246 167.227 146.098 167.227 120.012C167.227 93.925 146.08 72.7776 119.993 72.7776C93.9066 72.7776 72.7591 93.925 72.7591 120.012C72.7591 146.098 93.9066 167.246 119.993 167.246ZM119.993 178.47C152.279 178.47 178.451 152.297 178.451 120.012C178.451 87.7262 152.279 61.5536 119.993 61.5536C87.7078 61.5536 61.5352 87.7262 61.5352 120.012C61.5352 152.297 87.7078 178.47 119.993 178.47Z" fill="#B377BF"/>
<path fill-rule="evenodd" clip-rule="evenodd" d="M119.994 152.391C137.876 152.391 152.373 137.894 152.373 120.012C152.373 102.129 137.876 87.6326 119.994 87.6326C102.111 87.6326 87.6147 102.129 87.6147 120.012C87.6147 137.894 102.111 152.391 119.994 152.391ZM119.994 160.009C142.084 160.009 159.991 142.102 159.991 120.012C159.991 97.9216 142.084 80.014 119.994 80.014C97.9037 80.014 79.9961 97.9216 79.9961 120.012C79.9961 142.102 97.9037 160.009 119.994 160.009Z" fill="#B377BF"/>
</svg>
