<svg width="130" height="130" viewBox="0 0 130 130" fill="none" xmlns="http://www.w3.org/2000/svg">
<circle cx="8.49274" cy="121.242" r="8.20465" fill="#E8E8E8"/>
<circle cx="20.7994" cy="98.6789" r="8.20465" fill="#E8E8E8"/>
<circle cx="35.1578" cy="76.1161" r="8.20465" fill="#E8E8E8"/>
<circle cx="47.4654" cy="53.5533" r="8.20465" fill="#E8E8E8"/>
<circle cx="61.8238" cy="30.9905" r="8.20465" fill="#E8E8E8"/>
<circle cx="31.0552" cy="121.242" r="8.20465" fill="#E8E8E8"/>
<circle cx="43.3619" cy="98.6789" r="8.20465" fill="#E8E8E8"/>
<circle cx="57.7203" cy="76.1161" r="8.20465" fill="#E8E8E8"/>
<circle cx="70.0279" cy="53.5533" r="8.20465" fill="#E8E8E8"/>
<circle cx="84.3863" cy="30.9905" r="8.20465" fill="#E8E8E8"/>
<circle cx="72.0787" cy="8.4278" r="8.20465" fill="#E8E8E8"/>
<circle cx="53.6177" cy="121.242" r="8.20465" fill="#E8E8E8"/>
<circle cx="65.9254" cy="98.6789" r="8.20465" fill="#E8E8E8"/>
<circle cx="80.2838" cy="76.1161" r="8.20465" fill="#E8E8E8"/>
<circle cx="92.5904" cy="53.5533" r="8.20465" fill="#E8E8E8"/>
<circle cx="76.1802" cy="121.242" r="8.20465" fill="#E8E8E8"/>
<circle cx="88.4888" cy="98.6789" r="8.20465" fill="#E8E8E8"/>
<circle cx="102.846" cy="76.1161" r="8.20465" fill="#E8E8E8"/>
<circle cx="98.7447" cy="121.242" r="8.20465" fill="#E8E8E8"/>
<circle cx="111.051" cy="98.6789" r="8.20465" fill="#E8E8E8"/>
<circle cx="121.307" cy="121.242" r="8.20465" fill="#E8E8E8"/>
</svg>
